Coordinates
version=1
nRows=9
nColumns=42
inDegrees=yes

Units are S.I. units (second, meters, Newtons, ...)
If the header above contains a line with 'inDegrees', this indicates whether rotational values are in degrees (yes) or radians (no).

endheader
time	pelvis_tilt	pelvis_list	pelvis_rotation	pelvis_tx	pelvis_ty	pelvis_tz	hip_flexion_r	hip_adduction_r	hip_rotation_r	knee_angle_r	knee_adduction_r	knee_angle_r_beta	ankle_angle_r	subtalar_angle_r	mtp_angle_r	hip_flexion_l	hip_adduction_l	hip_rotation_l	knee_angle_l	knee_adduction_l	knee_angle_l_beta	ankle_angle_l	subtalar_angle_l	mtp_angle_l	lumbar_extension	lumbar_bending	lumbar_rotation	arm_flex_r	arm_add_r	arm_rot_r	elbow_flex_r	pro_sup_r	wrist_flex_r	wrist_dev_r	arm_flex_l	arm_add_l	arm_rot_l	elbow_flex_l	pro_sup_l	wrist_flex_l	wrist_dev_l
      1.75000000	     10.56862305	      2.36140581	     -1.61271628	     -0.46371061	      0.90876353	      0.19835398	     21.75269229	     -4.88093848	     -1.60024798	     61.16662632	      1.19620478	      1.06755902	      8.10821396	     -7.61958420	     -7.55761063	     -2.35223497	      6.79762604	    -18.60985468	     27.47617991	     -4.37977040	      0.47954981	     25.92088600	     23.38319836	     -7.55761063	    -23.88323059	      0.10009815	     -4.42007748	      1.20875690	     -8.44217250	    -22.38679598	     29.90992903	     90.00000001	      0.00000000	      0.00000000	     -1.96847775	     -8.45143201	    -21.31269878	     38.62240588	     90.00000001	      0.00000000	      0.00000000
      1.76000000	     10.38423072	      2.26332628	     -1.34184653	     -0.45655992	      0.90833661	      0.19812026	     22.48794528	     -4.77698561	     -1.58512838	     58.42783382	      1.51929473	      1.01975807	      8.59270700	     -6.43874770	     -7.55650890	     -2.75204145	      6.79596464	    -18.36918300	     27.29360962	     -4.57120134	      0.47636335	     26.29506043	     23.42781367	     -7.55650890	    -23.82519884	      0.35285497	     -4.74999046	      0.78546817	     -8.43388696	    -22.46825170	     30.22676506	     90.00000001	      0.00000000	      0.00000000	     -1.73871397	     -8.57895983	    -20.98196055	     38.65284433	     90.00000001	      0.00000000	      0.00000000
      1.77000000	     10.67341456	      2.12306024	     -1.00356130	     -0.44859014	      0.90870607	      0.19790540	     22.41123503	     -4.74518397	     -3.17180429	     55.31692110	      0.71289280	      0.96546241	     10.22598976	     -2.18518141	     -7.55293521	     -3.89977338	      6.51216843	    -18.59580888	     26.89317269	     -4.51462804	      0.46937441	     26.79303359	     24.76550381	     -7.55293521	    -24.20532637	      0.65483030	     -5.03667418	      0.29085358	     -8.40320254	    -22.79356452	     30.57354933	     90.00000001	      0.00000000	      0.00000000	     -1.54043595	     -8.78871460	    -20.24925329	     38.65948733	     90.00000001	      0.00000000	      0.00000000
      1.78000000	     10.54691344	      2.06527462	     -0.79424862	     -0.44113975	      0.90810366	      0.19795976	     22.91751030	     -4.69478550	     -3.22583566	     52.42066935	      1.04662872	      0.91491328	     10.91544056	     -0.60412262	     -7.55101649	     -4.43890729	      6.40841653	    -18.55434456	     26.67970976	     -4.51363872	      0.46564878	     27.24442905	     25.02229465	     -7.55101649	    -24.16997990	      0.81532764	     -5.23401373	     -0.17214886	     -8.35925543	    -22.92977301	     30.81271708	     90.00000001	      0.00000000	      0.00000000	     -1.28325481	     -8.88963548	    -20.03548277	     38.63036388	     90.00000001	      0.00000000	      0.00000000
      1.79000000	     10.49095285	      1.98787693	     -0.55420964	     -0.43341864	      0.90750127	      0.19800648	     23.26754138	     -4.64725789	     -3.87970716	     49.50036027	      0.96945632	      0.86394427	     11.72203009	      1.71314819	     -7.54860904	     -5.09303000	      6.26143457	    -18.65081347	     26.41446906	     -4.57136988	      0.46101946	     27.61961245	     25.75611650	     -7.54860904	    -24.17934487	      1.00332289	     -5.41562161	     -0.64437609	     -8.30873077	    -23.19342814	     31.00998315	     90.00000001	      0.00000000	      0.00000000	     -1.07168550	     -8.97437284	    -19.77797389	     38.64982706	     90.00000001	      0.00000000	      0.00000000
      1.80000000	     10.04847169	      2.25911049	     -0.41566607	     -0.42601525	      0.90585107	      0.19826442	     24.36347070	     -5.00815518	     -3.98044496	     47.21276978	      1.27894746	      0.82401828	     11.82770049	      2.13282633	     -7.54796447	     -5.15046891	      6.49341085	    -18.64674529	     26.42771907	     -4.55598881	      0.46125071	     27.71584452	     25.60151168	     -7.54796447	    -23.76616423	      0.72835972	     -5.63133621	     -1.12947805	     -8.19411083	    -23.21716789	     31.10976470	     90.00000001	      0.00000000	      0.00000000	     -0.95703891	     -9.10444701	    -19.71417311	     38.80527910	     90.00000001	      0.00000000	      0.00000000
      1.81000000	     10.29690596	      1.95265573	     -0.07551841	     -0.41803917	      0.90576013	      0.19829123	     23.97549363	     -4.84814382	     -5.11083729	     44.00172903	      1.25530456	      0.76797505	     13.02149891	      5.94670190	     -7.54465092	     -6.18510100	      6.00969448	    -18.77603756	     26.15234522	     -4.61212168	      0.45644453	     28.48667240	     26.98262879	     -7.54465092	    -24.11057801	      1.21683895	     -5.78760668	     -1.46119784	     -8.12320439	    -23.77325283	     31.22472185	     90.00000001	      0.00000000	      0.00000000	     -0.61384507	     -9.11644433	    -19.51173461	     38.61065410	     90.00000001	      0.00000000	      0.00000000
      1.82000000	      9.96004196	      2.06346462	      0.07691151	     -0.41059797	      0.90425201	      0.19861994	     24.67145591	     -5.07911607	     -5.20157036	     41.66235691	      1.76685683	      0.72714530	     13.24708251	      6.53363248	     -7.54391061	     -6.37038099	      6.11493936	    -18.56098016	     26.13196208	     -4.66774354	      0.45608878	     28.76792391	     26.91819531	     -7.54391061	    -23.83455529	      1.13675994	     -5.92104845	     -1.86826643	     -8.02751276	    -23.84430949	     31.27265614	     90.00000001	      0.00000000	      0.00000000	     -0.40235913	     -9.18591195	    -19.44310163	     38.62316869	     90.00000001	      0.00000000	      0.00000000
      1.83000000	     10.18880797	      1.83620945	      0.33825880	     -0.40245695	      0.90386587	      0.19906408	     24.35850068	     -5.04136732	     -6.54116762	     39.08962635	      1.81098144	      0.68224268	     13.85393054	      8.89293106	     -7.54193443	     -7.39034354	      5.53772899	    -18.59140952	     25.97614570	     -4.33643284	      0.45336927	     29.29488933	     27.68249883	     -7.54193443	    -24.12755693	      1.45594223	     -5.92926716	     -2.20642218	     -7.90677358	    -24.42331818	     31.20544346	     90.00000001	      0.00000000	      0.00000000	     -0.05088801	     -9.15538134	    -19.46607105	     38.43641470	     90.00000001	      0.00000000	      0.00000000
